<svg width="19" height="19" viewBox="0 0 19 19" fill="none" xmlns="http://www.w3.org/2000/svg">
<path d="M10.7153 1.8335C11.559 1.83575 11.9873 1.84025 12.357 1.85075L12.5025 1.856C12.6705 1.862 12.8363 1.8695 13.0365 1.8785C13.8345 1.916 14.379 2.042 14.8568 2.22725C15.3518 2.41775 15.7688 2.67575 16.1858 3.092C16.5672 3.46692 16.8622 3.92044 17.0505 4.421C17.2358 4.89875 17.3618 5.44325 17.3993 6.242C17.4083 6.4415 17.4158 6.60725 17.4218 6.776L17.4263 6.9215C17.4375 7.2905 17.442 7.71875 17.4435 8.5625L17.4443 9.122V10.1045C17.4461 10.6515 17.4404 11.1986 17.427 11.7455L17.4225 11.891C17.4165 12.0597 17.409 12.2255 17.4 12.425C17.3625 13.2237 17.235 13.7675 17.0505 14.246C16.8628 14.7468 16.5676 15.2005 16.1858 15.575C15.8108 15.9562 15.3573 16.2513 14.8568 16.4397C14.379 16.625 13.8345 16.751 13.0365 16.7885C12.8586 16.7969 12.6806 16.8044 12.5025 16.811L12.357 16.8155C11.9873 16.826 11.559 16.8312 10.7153 16.8327L10.1558 16.8335H9.17403C8.62673 16.8354 8.07942 16.8296 7.53228 16.8162L7.38678 16.8117C7.20874 16.805 7.03074 16.7973 6.85278 16.7885C6.05478 16.751 5.51028 16.625 5.03178 16.4397C4.53128 16.2518 4.07794 15.9566 3.70353 15.575C3.32181 15.2002 3.02645 14.7467 2.83803 14.246C2.65278 13.7682 2.52678 13.2237 2.48928 12.425C2.48092 12.247 2.47342 12.069 2.46678 11.891L2.46303 11.7455C2.44921 11.1986 2.44296 10.6516 2.44428 10.1045V8.5625C2.44219 8.01545 2.44769 7.46839 2.46078 6.9215L2.46603 6.776C2.47203 6.60725 2.47953 6.4415 2.48853 6.242C2.52603 5.44325 2.65203 4.8995 2.83728 4.421C3.02562 3.91992 3.32157 3.46626 3.70428 3.092C4.0786 2.7106 4.53164 2.41549 5.03178 2.22725C5.51028 2.042 6.05403 1.916 6.85278 1.8785C7.05228 1.8695 7.21878 1.862 7.38678 1.856L7.53228 1.8515C8.07917 1.83817 8.62623 1.83242 9.17328 1.83425L10.7153 1.8335ZM9.94428 5.5835C8.94972 5.5835 7.99589 5.97858 7.29263 6.68185C6.58937 7.38511 6.19428 8.33893 6.19428 9.3335C6.19428 10.3281 6.58937 11.2819 7.29263 11.9851C7.99589 12.6884 8.94972 13.0835 9.94428 13.0835C10.9388 13.0835 11.8927 12.6884 12.5959 11.9851C13.2992 11.2819 13.6943 10.3281 13.6943 9.3335C13.6943 8.33893 13.2992 7.38511 12.5959 6.68185C11.8927 5.97858 10.9388 5.5835 9.94428 5.5835ZM9.94428 7.0835C10.2398 7.08345 10.5323 7.1416 10.8053 7.25462C11.0783 7.36765 11.3264 7.53334 11.5354 7.74224C11.7443 7.95114 11.9101 8.19915 12.0232 8.47211C12.1364 8.74508 12.1946 9.03765 12.1947 9.33312C12.1947 9.6286 12.1366 9.92119 12.0235 10.1942C11.9105 10.4672 11.7448 10.7153 11.5359 10.9242C11.327 11.1332 11.079 11.299 10.806 11.4121C10.5331 11.5252 10.2405 11.5834 9.94503 11.5835C9.34829 11.5835 8.776 11.3464 8.35404 10.9245C7.93208 10.5025 7.69503 9.93023 7.69503 9.3335C7.69503 8.73676 7.93208 8.16446 8.35404 7.74251C8.776 7.32055 9.34829 7.0835 9.94503 7.0835M13.8825 4.4585C13.6339 4.4585 13.3954 4.55727 13.2196 4.73308C13.0438 4.9089 12.945 5.14736 12.945 5.396C12.945 5.64464 13.0438 5.88309 13.2196 6.05891C13.3954 6.23472 13.6339 6.3335 13.8825 6.3335C14.1312 6.3335 14.3696 6.23472 14.5454 6.05891C14.7213 5.88309 14.82 5.64464 14.82 5.396C14.82 5.14736 14.7213 4.9089 14.5454 4.73308C14.3696 4.55727 14.1312 4.4585 13.8825 4.4585Z" fill="black"/>
</svg>
