<svg width="68" height="20" viewBox="0 0 68 20" fill="none" xmlns="http://www.w3.org/2000/svg">
<path d="M14.9509 8.08509L9.10597 5.14326C8.91734 5.04901 8.71003 5 8.49994 5C8.28984 5 8.08254 5.04901 7.89391 5.14326L2.04894 8.08509C1.7342 8.24065 1.46886 8.48339 1.28333 8.7855C1.0978 9.08762 0.999583 9.43687 0.99994 9.79323V16.0899C0.99994 17.1432 1.85106 18 2.89737 18H14.1025C15.1488 18 15.9999 17.1432 15.9999 16.0899V9.79323C16.0003 9.43687 15.9021 9.08762 15.7165 8.7855C15.531 8.48339 15.2657 8.24065 14.9509 8.08509ZM8.37873 6.11944C8.41646 6.10058 8.45792 6.09078 8.49994 6.09078C8.54196 6.09078 8.58342 6.10058 8.62114 6.11944L14.2923 8.97293L8.53342 11.8721C8.4957 11.891 8.45424 11.9008 8.41222 11.9008C8.3702 11.9008 8.32874 11.891 8.29101 11.8721L2.6188 9.01829L8.37873 6.11944Z" fill="black"/>
<path d="M65.2999 18C63.9111 18 62.5388 17.6973 61.1833 17.092C59.8277 16.4867 58.5944 15.6282 57.4833 14.5167C56.3722 13.4056 55.5139 12.1722 54.9086 10.8167C54.3033 9.46111 54.0004 8.08889 53.9999 6.7C53.9999 6.5 54.0666 6.33333 54.1999 6.2C54.3333 6.06667 54.4999 6 54.6999 6H57.3999C57.5555 6 57.6944 6.05289 57.8166 6.15867C57.9388 6.26444 58.0111 6.38933 58.0333 6.53333L58.4666 8.86667C58.4888 9.04444 58.4833 9.19444 58.4499 9.31667C58.4166 9.43889 58.3555 9.54444 58.2666 9.63333L56.6499 11.2667C56.8722 11.6778 57.1359 12.0749 57.4413 12.458C57.7466 12.8411 58.0828 13.2107 58.4499 13.5667C58.7944 13.9111 59.1555 14.2307 59.5333 14.5253C59.9111 14.82 60.3111 15.0893 60.7333 15.3333L62.2999 13.7667C62.3999 13.6667 62.5306 13.5918 62.6919 13.542C62.8533 13.4922 63.0115 13.4782 63.1666 13.5L65.4666 13.9667C65.6222 14.0111 65.7499 14.0918 65.8499 14.2087C65.9499 14.3256 65.9999 14.456 65.9999 14.6V17.3C65.9999 17.5 65.9333 17.6667 65.7999 17.8C65.6666 17.9333 65.4999 18 65.2999 18Z" fill="black"/>
</svg>
