<svg width="19" height="20" viewBox="0 0 19 20" fill="none" xmlns="http://www.w3.org/2000/svg">
<path d="M13.3943 4.941C12.8816 4.3232 12.5991 3.5298 12.5993 2.7085H10.2818V12.5252C10.2639 13.0564 10.0514 13.5596 9.68909 13.9287C9.32677 14.2979 8.84286 14.5043 8.33927 14.5043C7.27427 14.5043 6.38927 13.586 6.38927 12.446C6.38927 11.0843 7.63427 10.0631 8.91677 10.4827V7.981C6.32927 7.61683 4.06427 9.7385 4.06427 12.446C4.06427 15.0822 6.13427 16.9585 8.33177 16.9585C10.6868 16.9585 12.5993 14.9397 12.5993 12.446V7.46641C13.539 8.17879 14.6673 8.56101 15.8243 8.55891V6.11266C15.8243 6.11266 14.4143 6.18391 13.3943 4.941Z" fill="black"/>
</svg>
