<svg width="33" height="33" viewBox="0 0 33 33" fill="none" xmlns="http://www.w3.org/2000/svg">
<path d="M21 25H7C6.73478 25 6.48043 24.8946 6.29289 24.7071C6.10536 24.5196 6 24.2652 6 24C6 23.7348 6.10536 23.4804 6.29289 23.2929C6.48043 23.1054 6.73478 23 7 23H17.44C18.1087 23 18.7582 22.7767 19.2854 22.3654C19.8126 21.9542 20.1873 21.3786 20.35 20.73L22 14.24C22.0375 14.0924 22.0407 13.9382 22.0095 13.7892C21.9783 13.6401 21.9135 13.5002 21.82 13.38C21.7227 13.2567 21.5978 13.1581 21.4554 13.0921C21.3129 13.0261 21.1569 12.9945 21 13H6.76C6.55369 12.4165 6.17193 11.911 5.66707 11.5529C5.1622 11.1949 4.55894 11.0017 3.94 11H3C2.73478 11 2.48043 11.1054 2.29289 11.2929C2.10536 11.4804 2 11.7348 2 12C2 12.2652 2.10536 12.5196 2.29289 12.7071C2.48043 12.8946 2.73478 13 3 13H3.94C4.16843 12.9933 4.39226 13.0651 4.57421 13.2034C4.75615 13.3417 4.88525 13.5381 4.94 13.76L5 14.24L6.73 21C5.93435 21.0358 5.18551 21.3862 4.64822 21.9741C4.11093 22.5621 3.8292 23.3394 3.865 24.135C3.9008 24.9306 4.25121 25.6795 4.83914 26.2168C5.42707 26.7541 6.20435 27.0358 7 27H7.18C7.01554 27.4531 6.96269 27.9392 7.02593 28.4171C7.08917 28.895 7.26665 29.3506 7.54332 29.7454C7.81999 30.1401 8.18772 30.4624 8.61535 30.6849C9.04299 30.9074 9.51795 31.0235 10 31.0235C10.4821 31.0235 10.957 30.9074 11.3846 30.6849C11.8123 30.4624 12.18 30.1401 12.4567 29.7454C12.7334 29.3506 12.9108 28.895 12.9741 28.4171C13.0373 27.9392 12.9845 27.4531 12.82 27H15.18C15.0155 27.4531 14.9627 27.9392 15.0259 28.4171C15.0892 28.895 15.2666 29.3506 15.5433 29.7454C15.82 30.1401 16.1877 30.4624 16.6154 30.6849C17.043 30.9074 17.5179 31.0235 18 31.0235C18.4821 31.0235 18.957 30.9074 19.3846 30.6849C19.8123 30.4624 20.18 30.1401 20.4567 29.7454C20.7334 29.3506 20.9108 28.895 20.9741 28.4171C21.0373 27.9392 20.9845 27.4531 20.82 27H21C21.2652 27 21.5196 26.8946 21.7071 26.7071C21.8946 26.5196 22 26.2652 22 26C22 25.7348 21.8946 25.4804 21.7071 25.2929C21.5196 25.1054 21.2652 25 21 25ZM19.72 15L18.41 20.24C18.3552 20.4619 18.2262 20.6583 18.0442 20.7966C17.8623 20.9349 17.6384 21.0067 17.41 21H8.78L7.28 15H19.72ZM10 29C9.80222 29 9.60888 28.9414 9.44443 28.8315C9.27998 28.7216 9.15181 28.5654 9.07612 28.3827C9.00043 28.2 8.98063 27.9989 9.01921 27.8049C9.0578 27.6109 9.15304 27.4327 9.29289 27.2929C9.43275 27.153 9.61093 27.0578 9.80491 27.0192C9.99889 26.9806 10.2 27.0004 10.3827 27.0761C10.5654 27.1518 10.7216 27.28 10.8315 27.4444C10.9414 27.6089 11 27.8022 11 28C11 28.2652 10.8946 28.5196 10.7071 28.7071C10.5196 28.8946 10.2652 29 10 29ZM18 29C17.8022 29 17.6089 28.9414 17.4444 28.8315C17.28 28.7216 17.1518 28.5654 17.0761 28.3827C17.0004 28.2 16.9806 27.9989 17.0192 27.8049C17.0578 27.6109 17.153 27.4327 17.2929 27.2929C17.4327 27.153 17.6109 27.0578 17.8049 27.0192C17.9989 26.9806 18.2 27.0004 18.3827 27.0761C18.5654 27.1518 18.7216 27.28 18.8315 27.4444C18.9414 27.6089 19 27.8022 19 28C19 28.2652 18.8946 28.5196 18.7071 28.7071C18.5196 28.8946 18.2652 29 18 29Z" fill="#212429"/>
<circle cx="25" cy="8" r="8" fill="#F6B750"/>
<path d="M22.468 12V11.388L25.96 7.968C26.28 7.656 26.52 7.384 26.68 7.152C26.84 6.912 26.948 6.688 27.004 6.48C27.06 6.272 27.088 6.076 27.088 5.892C27.088 5.404 26.92 5.02 26.584 4.74C26.256 4.46 25.768 4.32 25.12 4.32C24.624 4.32 24.184 4.396 23.8 4.548C23.424 4.7 23.1 4.936 22.828 5.256L22.216 4.728C22.544 4.344 22.964 4.048 23.476 3.84C23.988 3.632 24.56 3.528 25.192 3.528C25.76 3.528 26.252 3.62 26.668 3.804C27.084 3.98 27.404 4.24 27.628 4.584C27.86 4.928 27.976 5.332 27.976 5.796C27.976 6.068 27.936 6.336 27.856 6.6C27.784 6.864 27.648 7.144 27.448 7.44C27.256 7.728 26.972 8.056 26.596 8.424L23.392 11.568L23.152 11.232H28.36V12H22.468Z" fill="black"/>
</svg>
