<svg width="80" height="46" viewBox="0 0 80 46" fill="none" xmlns="http://www.w3.org/2000/svg">
<rect width="80" height="46" rx="8" fill="white"/>
<path fill-rule="evenodd" clip-rule="evenodd" d="M16.0004 21.6599C15.8903 21.9352 15.8352 22.2289 15.7618 22.5225C15.5783 23.4034 15.4315 24.3394 15.2296 25.2203C14.8258 25.2203 14.4037 25.2203 14 25.2203C14.4588 22.2472 15.303 19.3476 15.67 16.1543C16.0738 16.1543 16.4775 16.1543 16.8629 16.1543C16.8079 16.4479 16.7345 16.7232 16.6978 17.0169C16.6978 17.0352 16.6611 17.0536 16.6611 17.0903C17.2116 16.3745 18.0558 15.879 19.3955 16.0258C20.7169 16.1543 21.4326 17.2004 21.4877 18.43C21.6161 20.779 20.3682 22.9079 17.7989 22.7244C16.9547 22.6693 16.3124 22.3573 16.0004 21.6599ZM17.7255 17.2004C16.6427 17.7509 15.5966 20.2835 16.8262 21.3663C17.6337 22.082 18.9 21.6966 19.4322 21.036C20.0378 20.2835 20.5884 18.118 19.6708 17.3472C19.3588 17.0903 18.8633 16.9985 18.4045 17.0536C18.0742 17.0719 17.909 17.1086 17.7255 17.2004Z" fill="#030000"/>
<path fill-rule="evenodd" clip-rule="evenodd" d="M27.1586 22.5956C26.7732 22.5956 26.3878 22.5956 25.984 22.5956C26.0391 22.2285 26.1125 21.8798 26.1859 21.5311C25.8372 22.045 25.2316 22.6323 24.3507 22.724C23.0844 22.8525 21.9282 22.2102 21.8181 21.1641C21.7814 20.8154 21.7998 20.2465 22.0934 19.806C22.8275 18.6499 24.7361 18.5765 26.6264 18.6315C27.1953 16.5394 24.1488 16.8514 23.1028 17.5304C23.1578 17.1266 23.2496 16.7412 23.3046 16.3375C25.1949 15.7502 27.7458 15.897 27.8927 17.9341C27.9477 18.7416 27.7091 19.5308 27.5623 20.3016C27.4155 21.054 27.2687 21.7881 27.1586 22.5956ZM23.1578 20.9255C23.1945 21.4577 23.7818 21.7514 24.2589 21.7514C25.5619 21.7697 26.1859 20.6319 26.3878 19.5124C24.9196 19.439 23.0661 19.6225 23.1578 20.9255Z" fill="#030000"/>
<path fill-rule="evenodd" clip-rule="evenodd" d="M29.9848 16.1729C30.2601 17.8796 30.5904 19.5313 30.8474 21.2747C31.82 19.6047 32.7193 17.8612 33.6736 16.1729C34.1141 16.1729 34.5545 16.1729 35.0133 16.1729C33.8388 18.3017 32.4624 20.6324 31.141 22.8714C30.7373 23.5688 30.3335 24.5047 29.7463 24.9635C29.2324 25.3673 28.2414 25.459 27.4155 25.2939C27.4339 24.9268 27.5623 24.6515 27.5807 24.3028C27.7459 24.2845 27.9477 24.3946 28.1496 24.3946C29.0489 24.3946 29.5444 23.5688 29.8747 22.9264C29.4893 20.7058 29.0672 18.5036 28.6818 16.2646C28.6451 16.2279 28.6635 16.2096 28.6818 16.1729C29.1223 16.1729 29.5627 16.1729 29.9848 16.1729Z" fill="#030000"/>
<path fill-rule="evenodd" clip-rule="evenodd" d="M35.5453 26.3581C35.27 27.918 34.9213 29.3862 34.646 30.9461C33.7835 30.9461 32.9209 30.9461 32.04 30.9461C32.4438 29.0375 32.7925 27.1472 33.1779 25.2569C33.5633 23.385 34.0221 21.5131 34.2423 19.5311C34.9397 19.476 35.8756 19.476 36.573 19.5311C36.5547 19.9715 36.4445 20.3386 36.4078 20.7607C37.0869 20.0816 37.821 19.1824 39.3809 19.3292C40.8674 19.476 41.6933 20.7239 41.8034 22.3022C42.0052 25.0183 40.6839 27.6794 38.2981 27.8629C36.8116 27.973 36.1142 27.294 35.5453 26.3581ZM36.5914 22.3022C35.9857 23.1648 35.7839 24.8165 36.5547 25.4588C37.0318 25.8625 37.9127 25.6607 38.3165 25.3303C38.8303 24.9082 39.1974 24.1007 39.179 23.0914C39.1607 22.1738 38.7569 21.403 37.7843 21.5314C37.2153 21.6049 36.8666 21.8985 36.5914 22.3022Z" fill="#009651"/>
<path fill-rule="evenodd" clip-rule="evenodd" d="M48.9423 27.6977C48.2632 27.6794 47.4924 27.7344 46.8685 27.661C46.9419 27.294 46.9419 26.8352 46.9969 26.4681C46.7951 26.67 46.6482 26.9636 46.3913 27.2022C45.5471 27.973 43.6568 28.1382 42.7209 27.3674C41.7115 26.5232 41.8767 24.5044 42.7209 23.6419C43.6935 22.6325 45.5288 22.3756 47.419 22.5775C47.6025 21.8067 47.0887 21.3295 46.4464 21.2378C45.5104 21.1093 44.2625 21.513 43.7119 21.8434C43.822 21.1827 43.8587 20.467 43.9872 19.8063C44.6479 19.5677 45.2718 19.3842 46.061 19.3475C48.2449 19.2007 49.7497 19.9348 49.8966 21.8067C49.97 22.7977 49.6763 23.8254 49.4561 24.7981C49.2542 25.7524 49.1074 26.725 48.9423 27.6977ZM46.3179 24.0273C45.5288 24.0456 44.6662 24.3026 44.4827 24.8898C44.3359 25.4037 44.7029 25.8809 45.0883 25.9543C46.2995 26.2112 47.1254 25.0183 47.2171 24.064C46.9419 24.0089 46.5381 24.0273 46.3179 24.0273Z" fill="#009651"/>
<path fill-rule="evenodd" clip-rule="evenodd" d="M56.9441 19.806C56.8156 20.4667 56.577 21.0173 56.4486 21.678C55.8062 21.4577 55.0354 21.1274 54.0261 21.2375C53.6223 21.2926 53.2186 21.4944 53.2186 21.8982C53.2369 22.3937 53.9894 22.5772 54.4482 22.7607C55.0905 23.036 55.8613 23.4031 56.1733 23.9536C56.7055 24.9079 56.1733 26.3027 55.6044 26.89C55.1272 27.3855 54.228 27.7892 53.3103 27.8626C52.1175 27.9544 50.8695 27.7342 49.8418 27.4589C49.9886 26.7798 50.1538 26.1559 50.3373 25.5319C51.0163 25.8072 51.7871 26.0641 52.8332 25.9724C53.3287 25.9173 53.8793 25.7521 53.8059 25.1649C53.7508 24.6877 53.0351 24.5225 52.5029 24.3023C51.5118 23.8986 50.7778 23.3847 50.7778 22.045C50.7778 19.2922 54.595 18.8334 56.9441 19.806Z" fill="#009651"/>
<path fill-rule="evenodd" clip-rule="evenodd" d="M63.4409 19.8063C63.2941 20.4486 63.0922 21.0543 62.9087 21.6782C62.3031 21.4397 61.514 21.1277 60.5046 21.2378C60.1009 21.2745 59.6971 21.4764 59.6971 21.8985C59.7155 22.4123 60.6331 22.6876 61.0552 22.8711C61.9177 23.2382 62.7436 23.6419 62.8537 24.6329C62.9638 25.6056 62.56 26.3947 61.9911 26.9269C61.4589 27.4408 60.6698 27.7895 59.7889 27.8629C58.5776 27.9547 57.4031 27.7344 56.3203 27.4592C56.4304 26.7618 56.6507 26.1929 56.7791 25.5322C57.2746 25.679 57.7518 25.9176 58.339 25.9726C59.1649 26.046 60.2844 25.991 60.266 25.2752C60.2477 24.5045 58.651 24.3393 58.0271 23.8438C57.348 23.3116 56.9259 22.0086 57.4581 20.9441C58.339 19.2925 61.3672 18.9254 63.4409 19.8063Z" fill="#009651"/>
<path d="M64.4133 20.6509H64.083L64.1014 20.5225H64.9089L64.8905 20.6509H64.5602L64.3766 21.6603H64.2298L64.4133 20.6509Z" fill="#009651"/>
<path d="M65.7713 21.6603L65.8447 21.0546C65.863 20.9445 65.8814 20.7794 65.8998 20.6692C65.8447 20.7794 65.7896 20.9262 65.7162 21.0363L65.3859 21.6603H65.2758L65.184 21.0546C65.1657 20.9262 65.1473 20.7977 65.1473 20.6692C65.129 20.7794 65.0923 20.9445 65.0556 21.0546L64.9087 21.6603H64.7803L65.0739 20.5224H65.2574L65.3492 21.1648C65.3675 21.2565 65.3675 21.3666 65.3675 21.4584C65.4042 21.3666 65.4593 21.2749 65.496 21.1831L65.8447 20.5224H66.0282L65.8814 21.6603H65.7713Z" fill="#009651"/>
</svg>
