<svg width="80" height="46" viewBox="0 0 80 46" fill="none" xmlns="http://www.w3.org/2000/svg">
<rect width="80" height="46" rx="8" fill="white"/>
<path d="M33.7008 21.7031C33.56 22.7593 32.7151 22.7593 31.9406 22.7593H31.5181L31.8701 20.7174C31.8701 20.5765 32.011 20.5061 32.1518 20.5061H32.363C32.9263 20.5061 33.4192 20.5061 33.7008 20.7878C33.7008 21.0694 33.7008 21.3511 33.7008 21.7031ZM33.3488 18.8867H30.3211C30.1099 18.8867 29.9691 19.0275 29.8986 19.2387L28.7017 26.9839C28.7017 27.1247 28.7721 27.2656 28.9833 27.2656H30.3915C30.6028 27.2656 30.7436 27.1247 30.814 26.9135L31.166 24.8012C31.166 24.59 31.3773 24.4491 31.5885 24.4491H32.5742C34.5457 24.4491 35.6723 23.4634 36.0244 21.5623C36.1652 20.7174 36.0244 20.0837 35.6723 19.5908C35.109 19.1683 34.3345 18.8867 33.3488 18.8867Z" fill="#263577"/>
<path d="M40.319 24.5196C40.1782 25.3645 39.5445 25.9278 38.6996 25.9278C38.2771 25.9278 37.9251 25.787 37.7138 25.5053C37.5026 25.2237 37.4322 24.8716 37.5026 24.5196C37.6434 23.6747 38.2771 23.1114 39.1221 23.1114C39.5445 23.1114 39.8966 23.2522 40.1078 23.5338C40.2486 23.7451 40.3894 24.0971 40.319 24.5196ZM42.2905 21.7032H40.8823C40.7415 21.7032 40.6711 21.7736 40.6007 21.9144L40.5303 22.3369L40.4599 22.196C40.1782 21.7736 39.4741 21.5623 38.77 21.5623C37.1506 21.5623 35.8128 22.7593 35.5311 24.4492C35.3903 25.2941 35.6015 26.0686 36.0944 26.6319C36.5168 27.1248 37.1506 27.336 37.9251 27.336C39.1925 27.336 39.8966 26.4911 39.8966 26.4911L39.8262 26.9136C39.8262 27.0544 39.8966 27.1952 40.1078 27.1952H41.3752C41.5864 27.1952 41.7272 27.0544 41.7977 26.8431L42.5722 21.9144C42.5722 21.844 42.5018 21.7032 42.2905 21.7032Z" fill="#263577"/>
<path d="M49.9656 21.7032H48.4869C48.3461 21.7032 48.2053 21.7736 48.1349 21.9144L46.1634 24.8717L45.3184 22.0553C45.248 21.844 45.1072 21.7736 44.896 21.7736H43.4878C43.3469 21.7736 43.2061 21.9144 43.2765 22.1257L44.896 26.7728L43.4173 28.8851C43.2765 29.0259 43.4174 29.3076 43.6286 29.3076H45.1072C45.248 29.3076 45.3889 29.2372 45.4593 29.0963L50.2472 22.1257C50.3176 21.9144 50.1768 21.7032 49.9656 21.7032Z" fill="#263577"/>
<path d="M55.1051 21.7031C54.9643 22.7593 54.1194 22.7593 53.3449 22.7593H52.9224L53.2744 20.7174C53.2744 20.5765 53.4153 20.5061 53.5561 20.5061H53.7673C54.3306 20.5061 54.8235 20.5061 55.1051 20.7878C55.1755 21.0694 55.1755 21.3511 55.1051 21.7031ZM54.7531 18.8867H51.7254C51.5142 18.8867 51.3734 19.0275 51.3029 19.2387L50.106 26.9839C50.106 27.1247 50.1764 27.2656 50.3876 27.2656H51.9366C52.0775 27.2656 52.2183 27.1951 52.2183 26.9839L52.5703 24.8012C52.5703 24.59 52.7816 24.4491 52.9928 24.4491H53.9785C55.95 24.4491 57.0766 23.4634 57.4287 21.5623C57.5695 20.7174 57.4287 20.0837 57.0766 19.5908C56.5838 19.1683 55.8092 18.8867 54.7531 18.8867Z" fill="#2199D6"/>
<path d="M61.7946 24.5196C61.6538 25.3645 61.0201 25.9278 60.1752 25.9278C59.7527 25.9278 59.4007 25.787 59.1894 25.5053C58.9782 25.2237 58.9078 24.8716 58.9782 24.5196C59.119 23.6747 59.7527 23.1114 60.5976 23.1114C61.0201 23.1114 61.3722 23.2522 61.5834 23.5338C61.7242 23.7451 61.865 24.0971 61.7946 24.5196ZM63.7661 21.7032H62.3579C62.2171 21.7032 62.1467 21.7736 62.0762 21.9144L62.0059 22.3369L61.9354 22.196C61.6538 21.7736 60.9497 21.5623 60.2456 21.5623C58.6261 21.5623 57.2883 22.7593 57.0067 24.4492C56.8659 25.2941 57.0771 26.0686 57.57 26.6319C57.9924 27.1248 58.6261 27.336 59.4007 27.336C60.668 27.336 61.3721 26.4911 61.3721 26.4911L61.3017 26.9136C61.3017 27.0544 61.3722 27.1952 61.5834 27.1952H62.8508C63.062 27.1952 63.2028 27.0544 63.2732 26.8431L64.0478 21.9144C64.0478 21.844 63.9069 21.7032 63.7661 21.7032Z" fill="#2199D6"/>
<path d="M65.4559 19.0979L64.1885 26.9839C64.1885 27.1247 64.2589 27.2656 64.4701 27.2656H65.7375C65.9488 27.2656 66.0896 27.1247 66.16 26.9135L67.357 19.1683C67.357 19.0275 67.2865 18.8867 67.0753 18.8867H65.6671C65.5967 18.8867 65.5263 19.0275 65.4559 19.0979Z" fill="#2199D6"/>
<path d="M16.1679 28.7447L16.3791 27.2661H15.8862H13.4219L15.1117 16.4933C15.1117 16.4933 15.1117 16.4229 15.1821 16.4229H15.2526H19.4068C20.7446 16.4229 21.7303 16.7045 22.2232 17.2678C22.4344 17.5494 22.5753 17.8311 22.6457 18.1127C22.7161 18.4648 22.7161 18.8168 22.6457 19.3097V19.5913L22.8569 19.7322C23.0681 19.8026 23.209 19.9434 23.3498 20.0842C23.561 20.2954 23.7018 20.5771 23.7018 20.9291C23.7722 21.2812 23.7722 21.7037 23.6314 22.1965C23.4906 22.7598 23.3498 23.1823 23.1385 23.6047C22.9273 23.9568 22.6457 24.2384 22.364 24.5201C22.0824 24.7313 21.6599 24.8721 21.3079 25.0129C20.8854 25.0834 20.4629 25.1538 19.9701 25.1538H19.618C19.4068 25.1538 19.1956 25.2242 18.9843 25.365C18.8435 25.5058 18.7027 25.7171 18.6323 25.9283V26.0691L18.2098 28.6743V28.7447V28.8151C18.2098 28.8151 18.2098 28.8151 18.1394 28.8151H16.1679V28.7447Z" fill="#263577"/>
<path d="M23.1387 19.3096C23.1387 19.38 23.1387 19.4504 23.0683 19.5208C22.505 22.3372 20.6744 23.2526 18.2804 23.2526H17.0834C16.8018 23.2526 16.5201 23.4638 16.5201 23.7454L15.8864 27.6884L15.7456 28.815C15.7456 29.0262 15.8864 29.1671 16.0272 29.1671H18.21C18.4916 29.1671 18.7029 28.9558 18.7029 28.7446V28.6038L19.1253 26.069V25.9282C19.1957 25.6465 19.407 25.5057 19.6182 25.5057H19.9702C22.0826 25.5057 23.702 24.6608 24.1245 22.1964C24.3357 21.1402 24.1949 20.2953 23.702 19.732C23.5612 19.5912 23.35 19.4504 23.1387 19.3096Z" fill="#2199D6"/>
<path d="M22.5758 19.0979C22.5054 19.0979 22.435 19.0275 22.2942 19.0275C22.2238 19.0275 22.0829 18.9571 22.0125 18.9571C21.6605 18.8867 21.3084 18.8867 20.9564 18.8867H17.7175C17.6471 18.8867 17.5767 18.8867 17.5063 18.9571C17.3654 19.0275 17.2246 19.1683 17.2246 19.3092L16.5205 23.6746V23.8154C16.5909 23.5338 16.8021 23.3226 17.0838 23.3226H18.2808C20.6747 23.3226 22.5054 22.3368 23.0687 19.5908C23.0687 19.5204 23.0687 19.45 23.1391 19.3796C22.9983 19.3092 22.8575 19.2387 22.7166 19.1683C22.6462 19.0979 22.5758 19.0979 22.5758 19.0979Z" fill="#252C5E"/>
<path d="M17.2246 19.3093C17.2246 19.1685 17.3655 19.0277 17.5063 18.9572C17.5767 18.9572 17.6471 18.8868 17.7175 18.8868H20.9564C21.3084 18.8868 21.7309 18.8868 22.0126 18.9572C22.083 18.9572 22.2238 18.9572 22.2942 19.0277C22.3646 19.0277 22.435 19.0981 22.5758 19.0981C22.6463 19.0981 22.6463 19.0981 22.7167 19.1685C22.8575 19.2389 22.9983 19.3093 23.1391 19.3797C23.28 18.3236 23.1391 17.6194 22.5758 16.9857C21.9421 16.2816 20.8156 16 19.4074 16H15.2531C14.9715 16 14.6899 16.2112 14.6899 16.4929L13 27.3361C13 27.5473 13.1408 27.7586 13.3521 27.7586H15.8868L16.5205 23.6748L17.2246 19.3093Z" fill="#263577"/>
</svg>
