<svg width="156" height="17" viewBox="0 0 156 17" fill="none" xmlns="http://www.w3.org/2000/svg">
<path d="M7.73431 0.53125C8.97911 0.53125 9.80202 1.20312 10.2031 2.54688C10.2447 2.61458 10.2656 2.69792 10.2656 2.79688C10.2656 2.89062 10.2187 2.97917 10.1249 3.0625C10.0364 3.14583 9.94525 3.1875 9.8515 3.1875C9.69004 3.1875 9.59369 3.08854 9.56244 2.89062C9.48952 2.42188 9.29161 2.02344 8.96869 1.69531C8.64577 1.36719 8.23431 1.20312 7.73431 1.20312C7.23431 1.20312 6.85671 1.3776 6.6015 1.72656C6.34629 2.07552 6.21869 2.48698 6.21869 2.96094C6.21869 3.4349 6.28119 3.92188 6.40619 4.42188C6.5364 4.92188 6.69786 5.42188 6.89056 5.92188C7.08327 6.42188 7.289 6.92188 7.50775 7.42188C7.73171 7.92188 7.94004 8.42448 8.13275 8.92969C8.58067 10.1016 8.80463 11.1562 8.80463 12.0938C8.80463 13.026 8.54681 13.8802 8.03119 14.6562C7.36973 15.6719 6.32806 16.1797 4.90619 16.1797C3.81765 16.1797 2.87494 15.9089 2.07806 15.3672C1.2864 14.8255 0.890564 14.0495 0.890564 13.0391C0.890564 12.0286 1.19265 11.1562 1.79681 10.4219C2.01556 10.1562 2.28379 9.88281 2.6015 9.60156C2.70567 9.51302 2.80463 9.46875 2.89838 9.46875C3.10671 9.46875 3.21088 9.55469 3.21088 9.72656C3.21088 9.8151 3.18744 9.89583 3.14056 9.96875C2.60931 10.4583 2.25775 10.8646 2.08588 11.1875C1.79942 11.75 1.65619 12.2917 1.65619 12.8125C1.65619 13.3333 1.74733 13.75 1.92963 14.0625C2.11192 14.375 2.35411 14.6354 2.65619 14.8438C3.24994 15.2604 4.02077 15.4688 4.96869 15.4688C5.92181 15.4688 6.69265 15.0938 7.28119 14.3438C7.7864 13.7031 8.039 12.9219 8.039 12C8.039 11.0729 7.60671 9.60417 6.74213 7.59375C5.87754 5.58333 5.44525 4.1875 5.44525 3.40625C5.44525 2.61979 5.63275 1.94531 6.00775 1.38281C6.38275 0.815104 6.95827 0.53125 7.73431 0.53125ZM10.6093 16C10.6926 15.75 10.7656 15.4453 10.8281 15.0859C10.8958 14.7214 10.9817 14.3854 11.0859 14.0781C11.5286 12.3125 11.8932 10.4401 12.1796 8.46094C12.1953 8.36719 12.2057 8.27865 12.2109 8.19531C12.2213 8.11198 12.2994 7.98698 12.4453 7.82031C12.5546 7.77865 12.6354 7.75781 12.6874 7.75781C12.8333 7.75781 12.9296 7.84896 12.9765 8.03125V8.15625C12.9557 8.91667 12.8385 9.74479 12.6249 10.6406L12.2265 12.3203C12.3411 12.0807 12.4661 11.8047 12.6015 11.4922C13.1744 10.1693 13.7083 9.23438 14.2031 8.6875C14.6979 8.13542 15.2343 7.85938 15.8124 7.85938C16.1301 7.85938 16.3906 7.98958 16.5937 8.25C16.7968 8.50521 16.8984 8.80469 16.8984 9.14844C16.8984 9.20052 16.8958 9.2474 16.8906 9.28906C16.8854 9.32552 16.8828 9.36458 16.8828 9.40625C17.4609 8.70312 18.0624 8.22396 18.6874 7.96875C18.8801 7.88542 19.0729 7.84375 19.2656 7.84375C19.4635 7.84375 19.651 7.9375 19.8281 8.125C20.0051 8.30729 20.0937 8.55469 20.0937 8.86719C20.0937 9.17969 20.0598 9.51562 19.9921 9.875C19.9244 10.2344 19.8385 10.5964 19.7343 10.9609C19.6354 11.3255 19.5208 11.6953 19.3906 12.0703C19.2656 12.4401 19.1015 12.9557 18.8984 13.6172C18.6953 14.2786 18.5755 14.7865 18.539 15.1406C18.5025 15.4896 18.4713 15.6979 18.4453 15.7656C18.4244 15.8333 18.3775 15.9115 18.3046 16C18.2369 16.0938 18.1406 16.1406 18.0156 16.1406C17.7708 16.1406 17.6484 15.8802 17.6484 15.3594C17.6484 15.0312 17.7083 14.6771 17.8281 14.2969C17.9479 13.9167 18.0442 13.5964 18.1171 13.3359C18.1953 13.0755 18.2994 12.763 18.4296 12.3984C18.5598 12.0339 18.7213 11.5547 18.914 10.9609C19.1067 10.3672 19.2343 9.73177 19.2968 9.05469C19.2968 8.83594 19.2682 8.70833 19.2109 8.67188C19.1588 8.63021 19.0624 8.60938 18.9218 8.60938C18.7812 8.60938 18.5676 8.70052 18.2812 8.88281C17.9999 9.0651 17.7135 9.32292 17.4218 9.65625C16.7708 10.4219 16.2812 11.362 15.9531 12.4766C15.8593 12.8099 15.7708 13.0964 15.6874 13.3359C15.6041 13.5755 15.4921 13.9036 15.3515 14.3203C15.2161 14.737 15.1067 15.1042 15.0234 15.4219C14.9453 15.7344 14.8749 15.9323 14.8124 16.0156C14.7551 16.099 14.6588 16.1406 14.5234 16.1406C14.2786 16.1406 14.1458 16.0078 14.1249 15.7422C14.2499 14.8672 14.4374 14.0938 14.6874 13.4219C14.9374 12.75 15.1406 12.2161 15.2968 11.8203C15.4531 11.4245 15.6041 10.9792 15.7499 10.4844C15.8958 9.98438 15.9687 9.55469 15.9687 9.19531C15.9687 8.83594 15.8567 8.65625 15.6328 8.65625C15.0182 8.65625 14.2109 9.66667 13.2109 11.6875C12.6744 12.7656 12.3489 13.4766 12.2343 13.8203C12.1197 14.1641 12.0312 14.4271 11.9687 14.6094C11.6249 15.6875 11.2994 16.2266 10.9921 16.2266C10.888 16.2266 10.7968 16.2031 10.7187 16.1562C10.6458 16.1146 10.6093 16.0625 10.6093 16ZM23.9765 5.25C24.2838 5.25 24.4374 5.40365 24.4374 5.71094C24.4374 6.15885 24.2812 6.41146 23.9687 6.46875C23.8801 6.48438 23.7838 6.49219 23.6796 6.49219C23.5755 6.49219 23.4713 6.4401 23.3671 6.33594C23.263 6.23177 23.2109 6.09896 23.2109 5.9375C23.2109 5.77083 23.2916 5.61458 23.4531 5.46875C23.6145 5.32292 23.789 5.25 23.9765 5.25ZM22.8749 8.89844V8.74219C22.8749 8.66927 22.8359 8.49219 22.7578 8.21094C22.7578 8.08073 22.802 7.96354 22.8906 7.85938C22.9791 7.75 23.0859 7.69531 23.2109 7.69531C23.3411 7.69531 23.4479 7.77604 23.5312 7.9375C23.6145 8.09896 23.6562 8.27604 23.6562 8.46875C23.6562 8.66146 23.4114 9.8125 22.9218 11.9219C22.4322 14.0312 22.1874 15.1432 22.1874 15.2578C22.1874 15.3672 22.2395 15.4219 22.3437 15.4219C22.4114 15.4219 22.5078 15.3568 22.6328 15.2266C22.7578 15.0911 22.8645 15.0234 22.9531 15.0234C23.1249 15.0234 23.2109 15.1328 23.2109 15.3516C23.2109 15.5651 23.0494 15.7526 22.7265 15.9141C22.4036 16.0755 22.1692 16.1562 22.0234 16.1562C21.6588 16.1562 21.4765 15.8646 21.4765 15.2812C21.4765 15.1615 21.4999 15.0286 21.5468 14.8828C21.5989 14.7318 21.651 14.526 21.7031 14.2656C21.7604 14 21.8385 13.6406 21.9374 13.1875C22.0416 12.7344 22.1458 12.2656 22.2499 11.7812C22.3593 11.2969 22.4895 10.7109 22.6406 10.0234C22.7968 9.33073 22.8749 8.95573 22.8749 8.89844ZM27.4609 15.0234C27.6953 15.0234 27.8124 15.1432 27.8124 15.3828C27.8124 15.6172 27.6562 15.7995 27.3437 15.9297C27.0364 16.0599 26.6822 16.125 26.2812 16.125C25.8854 16.125 25.5937 16.0182 25.4062 15.8047C25.2187 15.5911 25.1249 15.3307 25.1249 15.0234C25.1249 14.7161 25.1406 14.4349 25.1718 14.1797C25.2083 13.9193 25.2682 13.5599 25.3515 13.1016C25.4348 12.6432 25.5312 12.1276 25.6406 11.5547C25.7499 10.9818 25.8723 10.3672 26.0078 9.71094C26.1432 9.05469 26.2812 8.38542 26.4218 7.70312C26.5624 7.02083 26.7031 6.34375 26.8437 5.67188C26.9895 5 27.1275 4.36198 27.2578 3.75781C27.388 3.14844 27.5078 2.59115 27.6171 2.08594C27.7265 1.57552 27.8176 1.14583 27.8906 0.796875C27.9374 0.630208 28.0572 0.546875 28.2499 0.546875C28.4739 0.546875 28.5859 0.669271 28.5859 0.914062V1.11719C28.3828 2.09115 28.1822 3.03906 27.9843 3.96094C27.7864 4.88281 27.4479 6.48177 26.9687 8.75781C26.4947 11.0339 26.1874 12.5729 26.0468 13.375C25.9114 14.1771 25.8437 14.6589 25.8437 14.8203C25.8437 14.9818 25.8932 15.125 25.9921 15.25C26.0911 15.375 26.2057 15.4375 26.3359 15.4375C26.4713 15.4375 26.5937 15.4167 26.7031 15.375C26.8124 15.3281 26.9192 15.2812 27.0234 15.2344C27.1275 15.1823 27.2213 15.1354 27.3046 15.0938C27.388 15.0469 27.44 15.0234 27.4609 15.0234ZM32.6406 14.6875C32.8229 14.6875 32.914 14.7839 32.914 14.9766C32.914 15.2005 32.6406 15.4531 32.0937 15.7344C31.5468 16.0156 31.0911 16.1562 30.7265 16.1562C30.3619 16.1562 30.0885 16.0964 29.9062 15.9766C29.7239 15.8568 29.5755 15.6901 29.4609 15.4766C29.2369 15.0599 29.1249 14.5573 29.1249 13.9688C29.1249 12.9271 29.2812 11.9453 29.5937 11.0234C29.9062 10.1016 30.3229 9.33854 30.8437 8.73438C31.3645 8.125 31.927 7.82031 32.5312 7.82031C32.8541 7.82031 33.1067 7.95573 33.289 8.22656C33.4765 8.49219 33.5703 8.80729 33.5703 9.17188C33.5703 9.85417 33.3906 10.4323 33.0312 10.9062C32.677 11.3802 32.2395 11.7682 31.7187 12.0703C31.1979 12.3724 30.5989 12.6589 29.9218 12.9297L29.8906 14.0781C29.8906 14.974 30.1614 15.4219 30.7031 15.4219C30.9947 15.4219 31.2994 15.3385 31.6171 15.1719C31.94 15 32.1718 14.8776 32.3124 14.8047C32.4531 14.7266 32.5624 14.6875 32.6406 14.6875ZM32.8359 9.20312C32.8359 8.78646 32.6614 8.57812 32.3124 8.57812C31.9999 8.57812 31.6328 8.85938 31.2109 9.42188C30.789 9.98438 30.44 10.7266 30.164 11.6484C30.0963 11.8724 30.0572 12.0417 30.0468 12.1562C30.2551 12.0417 30.4687 11.9323 30.6874 11.8281C30.9062 11.724 31.1197 11.6146 31.3281 11.5C31.8072 11.2344 32.177 10.9245 32.4374 10.5703C32.7031 10.2109 32.8359 9.75521 32.8359 9.20312ZM36.8046 8.53125C36.2838 8.53125 36.0234 8.83333 36.0234 9.4375C36.0234 9.83854 36.1171 10.2526 36.3046 10.6797C36.4921 11.1068 36.651 11.4479 36.7812 11.7031C37.2864 12.7083 37.539 13.4792 37.539 14.0156C37.539 14.5469 37.3775 15 37.0546 15.375C36.7317 15.75 36.2656 15.974 35.6562 16.0469H35.5546C34.9661 16.0469 34.539 15.6849 34.2734 14.9609C34.263 14.9349 34.2578 14.9115 34.2578 14.8906V14.8125C34.2578 14.7031 34.2916 14.6146 34.3593 14.5469C34.427 14.474 34.4999 14.4297 34.5781 14.4141H34.664C34.7682 14.4141 34.8515 14.4557 34.914 14.5391C34.9817 14.6224 35.0442 14.7161 35.1015 14.8203C35.1588 14.9193 35.2213 15.0104 35.289 15.0938C35.3567 15.1771 35.4739 15.2188 35.6406 15.2188C35.9947 15.2188 36.276 15.1094 36.4843 14.8906C36.6979 14.6667 36.8046 14.4193 36.8046 14.1484C36.8046 13.8776 36.7656 13.625 36.6874 13.3906C36.5572 12.9896 36.3333 12.4896 36.0156 11.8906C35.4843 10.9062 35.2187 10.1406 35.2187 9.59375C35.2187 9.04688 35.3567 8.59896 35.6328 8.25C35.9088 7.90104 36.2994 7.72656 36.8046 7.72656C37.1171 7.72656 37.3854 7.79167 37.6093 7.92188C38.0312 8.16667 38.2421 8.44271 38.2421 8.75C38.2421 9.05208 38.1145 9.20312 37.8593 9.20312C37.7656 9.20312 37.6874 9.16927 37.6249 9.10156C37.5676 9.02865 37.5051 8.95052 37.4374 8.86719C37.2551 8.64323 37.0442 8.53125 36.8046 8.53125ZM38.5937 16.1953C38.2812 16.1953 38.1249 16.0104 38.1249 15.6406C38.1249 15.4583 38.2031 15.2943 38.3593 15.1484C38.5104 15.0026 38.6744 14.9297 38.8515 14.9297C39.0338 14.9297 39.2083 14.9922 39.3749 15.1172C39.5572 15.2943 39.6484 15.4688 39.6484 15.6406C39.6484 15.8125 39.5833 15.9583 39.4531 16.0781C39.3229 16.1979 39.1822 16.2578 39.0312 16.2578C38.8801 16.2578 38.7551 16.237 38.6562 16.1953H38.5937ZM40.5937 16.1953C40.2812 16.1953 40.1249 16.0104 40.1249 15.6406C40.1249 15.4583 40.2031 15.2943 40.3593 15.1484C40.5104 15.0026 40.6744 14.9297 40.8515 14.9297C41.0338 14.9297 41.2083 14.9922 41.3749 15.1172C41.5572 15.2943 41.6484 15.4688 41.6484 15.6406C41.6484 15.8125 41.5833 15.9583 41.4531 16.0781C41.3229 16.1979 41.1822 16.2578 41.0312 16.2578C40.8801 16.2578 40.7551 16.237 40.6562 16.1953H40.5937ZM56.3046 14C56.4869 14 56.5781 14.0964 56.5781 14.2891C56.5781 14.4349 56.4973 14.5677 56.3359 14.6875C56.0911 14.8542 55.8437 15.0312 55.5937 15.2188C54.6874 15.8958 53.8541 16.2344 53.0937 16.2344C52.6666 16.2344 52.2604 16.125 51.8749 15.9062C51.0572 15.4479 50.4713 14.6224 50.1171 13.4297C49.94 12.8307 49.8515 12.2604 49.8515 11.7188C49.8515 10.8281 49.9921 9.76823 50.2734 8.53906C50.5598 7.30469 50.9687 6.0625 51.4999 4.8125C52.0312 3.55729 52.6666 2.51042 53.4062 1.67188C54.1458 0.833333 54.9322 0.414062 55.7656 0.414062C56.5989 0.414062 57.2994 0.763021 57.8671 1.46094C58.4348 2.15365 58.7187 2.86198 58.7187 3.58594C58.7031 3.69531 58.6484 3.79688 58.5546 3.89062C58.4609 3.98438 58.3671 4.03125 58.2734 4.03125C58.1796 4.03125 58.1093 4 58.0624 3.9375C57.9947 3.84375 57.9479 3.67188 57.9218 3.42188C57.8385 2.76042 57.6015 2.22396 57.2109 1.8125C56.8203 1.39583 56.3333 1.1875 55.7499 1.1875C55.1666 1.1875 54.5442 1.58073 53.8828 2.36719C53.0025 3.40885 52.2473 4.88542 51.6171 6.79688C50.9869 8.70312 50.6718 10.2109 50.6718 11.3203C50.6718 12.4245 50.8593 13.349 51.2343 14.0938C51.6926 15 52.3541 15.4531 53.2187 15.4531C53.8541 15.4531 54.5833 15.1562 55.4062 14.5625C55.6354 14.3958 55.8203 14.2604 55.9609 14.1562C56.1015 14.0521 56.2161 14 56.3046 14ZM62.0937 7.92188C63.0781 7.92188 63.5703 8.66667 63.5703 10.1562C63.5703 11.3177 63.2499 12.5651 62.6093 13.8984C62.177 14.7943 61.6562 15.4401 61.0468 15.8359C60.7343 16.0391 60.4114 16.1406 60.0781 16.1406C59.4895 16.1406 59.0676 15.9062 58.8124 15.4375C58.5572 14.9688 58.4296 14.4635 58.4296 13.9219C58.4296 12.9531 58.5911 12.013 58.914 11.1016C59.2421 10.1901 59.6848 9.43229 60.2421 8.82812C60.8046 8.22396 61.4218 7.92188 62.0937 7.92188ZM59.9999 10.5078C59.4374 11.6328 59.1562 12.7318 59.1562 13.8047C59.1562 14.5495 59.3619 15.0495 59.7734 15.3047C59.8984 15.3828 60.0416 15.4219 60.2031 15.4219C60.5364 15.4219 60.9088 15.1328 61.3203 14.5547C61.7317 13.9766 62.0781 13.2656 62.3593 12.4219C62.6406 11.5729 62.7812 10.8464 62.7812 10.2422C62.7812 9.63281 62.7447 9.2474 62.6718 9.08594C62.6041 8.92448 62.5234 8.8125 62.4296 8.75C62.3411 8.6875 62.19 8.65625 61.9765 8.65625C61.7682 8.65625 61.539 8.73958 61.289 8.90625C60.8046 9.21875 60.3749 9.7526 59.9999 10.5078ZM67.1015 15.0234C67.3359 15.0234 67.4531 15.1432 67.4531 15.3828C67.4531 15.6172 67.2968 15.7995 66.9843 15.9297C66.677 16.0599 66.3229 16.125 65.9218 16.125C65.526 16.125 65.2343 16.0182 65.0468 15.8047C64.8593 15.5911 64.7656 15.3307 64.7656 15.0234C64.7656 14.7161 64.7812 14.4349 64.8124 14.1797C64.8489 13.9193 64.9088 13.5599 64.9921 13.1016C65.0755 12.6432 65.1718 12.1276 65.2812 11.5547C65.3906 10.9818 65.513 10.3672 65.6484 9.71094C65.7838 9.05469 65.9218 8.38542 66.0624 7.70312C66.2031 7.02083 66.3437 6.34375 66.4843 5.67188C66.6301 5 66.7682 4.36198 66.8984 3.75781C67.0286 3.14844 67.1484 2.59115 67.2578 2.08594C67.3671 1.57552 67.4583 1.14583 67.5312 0.796875C67.5781 0.630208 67.6979 0.546875 67.8906 0.546875C68.1145 0.546875 68.2265 0.669271 68.2265 0.914062V1.11719C68.0234 2.09115 67.8229 3.03906 67.6249 3.96094C67.427 4.88281 67.0885 6.48177 66.6093 8.75781C66.1354 11.0339 65.8281 12.5729 65.6874 13.375C65.552 14.1771 65.4843 14.6589 65.4843 14.8203C65.4843 14.9818 65.5338 15.125 65.6328 15.25C65.7317 15.375 65.8463 15.4375 65.9765 15.4375C66.1119 15.4375 66.2343 15.4167 66.3437 15.375C66.4531 15.3281 66.5598 15.2812 66.664 15.2344C66.7682 15.1823 66.8619 15.1354 66.9453 15.0938C67.0286 15.0469 67.0807 15.0234 67.1015 15.0234ZM72.3749 7.92188C73.3593 7.92188 73.8515 8.66667 73.8515 10.1562C73.8515 11.3177 73.5312 12.5651 72.8906 13.8984C72.4583 14.7943 71.9374 15.4401 71.3281 15.8359C71.0156 16.0391 70.6926 16.1406 70.3593 16.1406C69.7708 16.1406 69.3489 15.9062 69.0937 15.4375C68.8385 14.9688 68.7109 14.4635 68.7109 13.9219C68.7109 12.9531 68.8723 12.013 69.1953 11.1016C69.5234 10.1901 69.9661 9.43229 70.5234 8.82812C71.0859 8.22396 71.7031 7.92188 72.3749 7.92188ZM70.2812 10.5078C69.7187 11.6328 69.4374 12.7318 69.4374 13.8047C69.4374 14.5495 69.6432 15.0495 70.0546 15.3047C70.1796 15.3828 70.3229 15.4219 70.4843 15.4219C70.8176 15.4219 71.19 15.1328 71.6015 14.5547C72.013 13.9766 72.3593 13.2656 72.6406 12.4219C72.9218 11.5729 73.0624 10.8464 73.0624 10.2422C73.0624 9.63281 73.026 9.2474 72.9531 9.08594C72.8854 8.92448 72.8046 8.8125 72.7109 8.75C72.6223 8.6875 72.4713 8.65625 72.2578 8.65625C72.0494 8.65625 71.8203 8.73958 71.5703 8.90625C71.0859 9.21875 70.6562 9.7526 70.2812 10.5078ZM74.9687 15.9688L75.3281 14.0625C75.5156 13.0885 75.6432 12.3984 75.7109 11.9922C75.7786 11.5807 75.8541 11.1302 75.9374 10.6406C76.026 10.1458 76.2031 9.4375 76.4687 8.51562C76.4583 8.48958 76.4531 8.46615 76.4531 8.44531V8.36719C76.4531 8.11719 76.5494 7.9375 76.7421 7.82812C76.7994 7.79167 76.8593 7.77344 76.9218 7.77344C77.1458 7.77344 77.2578 7.9349 77.2578 8.25781C77.2578 8.44531 77.1822 8.78385 77.0312 9.27344C76.8801 9.75781 76.763 10.2083 76.6796 10.625C76.7525 10.5052 76.8411 10.3542 76.9453 10.1719C77.0546 9.98958 77.2239 9.72396 77.4531 9.375C77.6874 9.02604 77.9791 8.69531 78.3281 8.38281C78.6822 8.0651 79.0416 7.90625 79.4062 7.90625C79.776 7.90625 80.0572 8.00521 80.2499 8.20312C80.3229 8.27083 80.3593 8.35677 80.3593 8.46094C80.3593 8.5651 80.3124 8.65885 80.2187 8.74219C80.1249 8.82552 80.0286 8.86719 79.9296 8.86719C79.8307 8.86719 79.7343 8.84115 79.6406 8.78906C79.5468 8.73177 79.4426 8.70312 79.3281 8.70312C79.2135 8.70312 79.0312 8.79688 78.7812 8.98438C77.7864 9.70833 76.9661 11.1432 76.3203 13.2891C76.1484 13.862 76.0442 14.2578 76.0078 14.4766C75.9713 14.6901 75.94 14.8646 75.914 15C75.7578 15.8385 75.5182 16.2578 75.1953 16.2578C75.0442 16.2578 74.9687 16.1615 74.9687 15.9688ZM83.039 8.53125C82.5182 8.53125 82.2578 8.83333 82.2578 9.4375C82.2578 9.83854 82.3515 10.2526 82.539 10.6797C82.7265 11.1068 82.8854 11.4479 83.0156 11.7031C83.5208 12.7083 83.7734 13.4792 83.7734 14.0156C83.7734 14.5469 83.6119 15 83.289 15.375C82.9661 15.75 82.4999 15.974 81.8906 16.0469H81.789C81.2005 16.0469 80.7734 15.6849 80.5078 14.9609C80.4973 14.9349 80.4921 14.9115 80.4921 14.8906V14.8125C80.4921 14.7031 80.526 14.6146 80.5937 14.5469C80.6614 14.474 80.7343 14.4297 80.8124 14.4141H80.8984C81.0025 14.4141 81.0859 14.4557 81.1484 14.5391C81.2161 14.6224 81.2786 14.7161 81.3359 14.8203C81.3932 14.9193 81.4557 15.0104 81.5234 15.0938C81.5911 15.1771 81.7083 15.2188 81.8749 15.2188C82.2291 15.2188 82.5104 15.1094 82.7187 14.8906C82.9322 14.6667 83.039 14.4193 83.039 14.1484C83.039 13.8776 82.9999 13.625 82.9218 13.3906C82.7916 12.9896 82.5676 12.4896 82.2499 11.8906C81.7187 10.9062 81.4531 10.1406 81.4531 9.59375C81.4531 9.04688 81.5911 8.59896 81.8671 8.25C82.1432 7.90104 82.5338 7.72656 83.039 7.72656C83.3515 7.72656 83.6197 7.79167 83.8437 7.92188C84.2656 8.16667 84.4765 8.44271 84.4765 8.75C84.4765 9.05208 84.3489 9.20312 84.0937 9.20312C83.9999 9.20312 83.9218 9.16927 83.8593 9.10156C83.802 9.02865 83.7395 8.95052 83.6718 8.86719C83.4895 8.64323 83.2786 8.53125 83.039 8.53125ZM84.8281 16.1953C84.5156 16.1953 84.3593 16.0104 84.3593 15.6406C84.3593 15.4583 84.4374 15.2943 84.5937 15.1484C84.7447 15.0026 84.9088 14.9297 85.0859 14.9297C85.2682 14.9297 85.4426 14.9922 85.6093 15.1172C85.7916 15.2943 85.8828 15.4688 85.8828 15.6406C85.8828 15.8125 85.8176 15.9583 85.6874 16.0781C85.5572 16.1979 85.4166 16.2578 85.2656 16.2578C85.1145 16.2578 84.9895 16.237 84.8906 16.1953H84.8281ZM86.8281 16.1953C86.5156 16.1953 86.3593 16.0104 86.3593 15.6406C86.3593 15.4583 86.4374 15.2943 86.5937 15.1484C86.7447 15.0026 86.9088 14.9297 87.0859 14.9297C87.2682 14.9297 87.4426 14.9922 87.6093 15.1172C87.7916 15.2943 87.8828 15.4688 87.8828 15.6406C87.8828 15.8125 87.8176 15.9583 87.6874 16.0781C87.5572 16.1979 87.4166 16.2578 87.2656 16.2578C87.1145 16.2578 86.9895 16.237 86.8906 16.1953H86.8281ZM107.852 0.898438C107.992 0.643229 108.146 0.515625 108.312 0.515625C108.484 0.515625 108.57 0.59375 108.57 0.75C108.57 0.765625 108.57 0.78125 108.57 0.796875C108.253 6.09375 108.075 10.9635 108.039 15.4062C108.107 15.5417 108.104 15.6771 108.031 15.8125C107.906 16.0677 107.76 16.1953 107.594 16.1953C107.391 16.1953 107.281 16.0156 107.266 15.6562C107.26 15.5521 107.258 15.2214 107.258 14.6641C107.258 14.1068 107.271 13.3151 107.297 12.2891C107.328 11.263 107.362 10.2344 107.398 9.20312C107.44 8.16667 107.482 7.13542 107.523 6.10938C107.565 5.07812 107.599 4.0599 107.625 3.05469C107.109 4.20573 106.213 5.99479 104.937 8.42188C103.667 10.8438 102.812 12.4948 102.375 13.375C102.255 13.599 102.12 13.7109 101.969 13.7109C101.818 13.7109 101.713 13.6354 101.656 13.4844C101.385 12.2344 100.974 10.3724 100.422 7.89844C99.8697 5.42448 99.4921 3.68229 99.289 2.67188C98.94 4.44271 98.388 6.88542 97.6328 10C96.8775 13.1146 96.4114 15.0677 96.2343 15.8594C96.1301 16.0729 95.9817 16.1797 95.789 16.1797C95.6275 16.1797 95.5364 16.0729 95.5156 15.8594C95.8541 14 96.4296 11.3854 97.2421 8.01562C98.0546 4.64062 98.6145 2.27344 98.9218 0.914062C98.9531 0.809896 99.013 0.721354 99.1015 0.648438C99.1953 0.570312 99.2812 0.53125 99.3593 0.53125C99.5104 0.53125 99.6093 0.619792 99.6562 0.796875C100.099 2.71354 100.544 4.75781 100.992 6.92969C101.445 9.10156 101.815 10.7969 102.102 12.0156C102.815 10.7865 103.477 9.5651 104.086 8.35156C104.695 7.13802 105.294 5.9401 105.883 4.75781C106.477 3.57552 107.133 2.28906 107.852 0.898438ZM113.359 14.6875C113.542 14.6875 113.633 14.7839 113.633 14.9766C113.633 15.2005 113.359 15.4531 112.812 15.7344C112.266 16.0156 111.81 16.1562 111.445 16.1562C111.081 16.1562 110.807 16.0964 110.625 15.9766C110.443 15.8568 110.294 15.6901 110.18 15.4766C109.956 15.0599 109.844 14.5573 109.844 13.9688C109.844 12.9271 110 11.9453 110.312 11.0234C110.625 10.1016 111.042 9.33854 111.562 8.73438C112.083 8.125 112.646 7.82031 113.25 7.82031C113.573 7.82031 113.825 7.95573 114.008 8.22656C114.195 8.49219 114.289 8.80729 114.289 9.17188C114.289 9.85417 114.109 10.4323 113.75 10.9062C113.396 11.3802 112.958 11.7682 112.437 12.0703C111.917 12.3724 111.318 12.6589 110.641 12.9297L110.609 14.0781C110.609 14.974 110.88 15.4219 111.422 15.4219C111.713 15.4219 112.018 15.3385 112.336 15.1719C112.659 15 112.891 14.8776 113.031 14.8047C113.172 14.7266 113.281 14.6875 113.359 14.6875ZM113.555 9.20312C113.555 8.78646 113.38 8.57812 113.031 8.57812C112.719 8.57812 112.352 8.85938 111.93 9.42188C111.508 9.98438 111.159 10.7266 110.883 11.6484C110.815 11.8724 110.776 12.0417 110.766 12.1562C110.974 12.0417 111.187 11.9323 111.406 11.8281C111.625 11.724 111.838 11.6146 112.047 11.5C112.526 11.2344 112.896 10.9245 113.156 10.5703C113.422 10.2109 113.555 9.75521 113.555 9.20312ZM115.141 16C115.224 15.75 115.297 15.4453 115.359 15.0859C115.427 14.7214 115.513 14.3854 115.617 14.0781C116.06 12.3125 116.424 10.4401 116.711 8.46094C116.727 8.36719 116.737 8.27865 116.742 8.19531C116.753 8.11198 116.831 7.98698 116.977 7.82031C117.086 7.77865 117.167 7.75781 117.219 7.75781C117.365 7.75781 117.461 7.84896 117.508 8.03125V8.15625C117.487 8.91667 117.37 9.74479 117.156 10.6406L116.758 12.3203C116.872 12.0807 116.997 11.8047 117.133 11.4922C117.706 10.1693 118.24 9.23438 118.734 8.6875C119.229 8.13542 119.766 7.85938 120.344 7.85938C120.661 7.85938 120.922 7.98958 121.125 8.25C121.328 8.50521 121.43 8.80469 121.43 9.14844C121.43 9.20052 121.427 9.2474 121.422 9.28906C121.417 9.32552 121.414 9.36458 121.414 9.40625C121.992 8.70312 122.594 8.22396 123.219 7.96875C123.411 7.88542 123.604 7.84375 123.797 7.84375C123.995 7.84375 124.182 7.9375 124.359 8.125C124.536 8.30729 124.625 8.55469 124.625 8.86719C124.625 9.17969 124.591 9.51562 124.523 9.875C124.456 10.2344 124.37 10.5964 124.266 10.9609C124.167 11.3255 124.052 11.6953 123.922 12.0703C123.797 12.4401 123.633 12.9557 123.43 13.6172C123.227 14.2786 123.107 14.7865 123.07 15.1406C123.034 15.4896 123.003 15.6979 122.977 15.7656C122.956 15.8333 122.909 15.9115 122.836 16C122.768 16.0938 122.672 16.1406 122.547 16.1406C122.302 16.1406 122.18 15.8802 122.18 15.3594C122.18 15.0312 122.24 14.6771 122.359 14.2969C122.479 13.9167 122.575 13.5964 122.648 13.3359C122.727 13.0755 122.831 12.763 122.961 12.3984C123.091 12.0339 123.253 11.5547 123.445 10.9609C123.638 10.3672 123.766 9.73177 123.828 9.05469C123.828 8.83594 123.799 8.70833 123.742 8.67188C123.69 8.63021 123.594 8.60938 123.453 8.60938C123.312 8.60938 123.099 8.70052 122.812 8.88281C122.531 9.0651 122.245 9.32292 121.953 9.65625C121.302 10.4219 120.812 11.362 120.484 12.4766C120.391 12.8099 120.302 13.0964 120.219 13.3359C120.135 13.5755 120.023 13.9036 119.883 14.3203C119.747 14.737 119.638 15.1042 119.555 15.4219C119.477 15.7344 119.406 15.9323 119.344 16.0156C119.286 16.099 119.19 16.1406 119.055 16.1406C118.81 16.1406 118.677 16.0078 118.656 15.7422C118.781 14.8672 118.969 14.0938 119.219 13.4219C119.469 12.75 119.672 12.2161 119.828 11.8203C119.984 11.4245 120.135 10.9792 120.281 10.4844C120.427 9.98438 120.5 9.55469 120.5 9.19531C120.5 8.83594 120.388 8.65625 120.164 8.65625C119.549 8.65625 118.742 9.66667 117.742 11.6875C117.206 12.7656 116.88 13.4766 116.766 13.8203C116.651 14.1641 116.562 14.4271 116.5 14.6094C116.156 15.6875 115.831 16.2266 115.523 16.2266C115.419 16.2266 115.328 16.2031 115.25 16.1562C115.177 16.1146 115.141 16.0625 115.141 16ZM129.656 7.92188C130.641 7.92188 131.133 8.66667 131.133 10.1562C131.133 11.3177 130.812 12.5651 130.172 13.8984C129.74 14.7943 129.219 15.4401 128.609 15.8359C128.297 16.0391 127.974 16.1406 127.641 16.1406C127.052 16.1406 126.63 15.9062 126.375 15.4375C126.12 14.9688 125.992 14.4635 125.992 13.9219C125.992 12.9531 126.154 12.013 126.477 11.1016C126.805 10.1901 127.247 9.43229 127.805 8.82812C128.367 8.22396 128.984 7.92188 129.656 7.92188ZM127.562 10.5078C127 11.6328 126.719 12.7318 126.719 13.8047C126.719 14.5495 126.924 15.0495 127.336 15.3047C127.461 15.3828 127.604 15.4219 127.766 15.4219C128.099 15.4219 128.471 15.1328 128.883 14.5547C129.294 13.9766 129.641 13.2656 129.922 12.4219C130.203 11.5729 130.344 10.8464 130.344 10.2422C130.344 9.63281 130.307 9.2474 130.234 9.08594C130.167 8.92448 130.086 8.8125 129.992 8.75C129.904 8.6875 129.753 8.65625 129.539 8.65625C129.331 8.65625 129.102 8.73958 128.852 8.90625C128.367 9.21875 127.937 9.7526 127.562 10.5078ZM132.25 15.9688L132.609 14.0625C132.797 13.0885 132.924 12.3984 132.992 11.9922C133.06 11.5807 133.135 11.1302 133.219 10.6406C133.307 10.1458 133.484 9.4375 133.75 8.51562C133.74 8.48958 133.734 8.46615 133.734 8.44531V8.36719C133.734 8.11719 133.831 7.9375 134.023 7.82812C134.081 7.79167 134.141 7.77344 134.203 7.77344C134.427 7.77344 134.539 7.9349 134.539 8.25781C134.539 8.44531 134.463 8.78385 134.312 9.27344C134.161 9.75781 134.044 10.2083 133.961 10.625C134.034 10.5052 134.122 10.3542 134.227 10.1719C134.336 9.98958 134.505 9.72396 134.734 9.375C134.969 9.02604 135.26 8.69531 135.609 8.38281C135.963 8.0651 136.323 7.90625 136.687 7.90625C137.057 7.90625 137.338 8.00521 137.531 8.20312C137.604 8.27083 137.641 8.35677 137.641 8.46094C137.641 8.5651 137.594 8.65885 137.5 8.74219C137.406 8.82552 137.31 8.86719 137.211 8.86719C137.112 8.86719 137.016 8.84115 136.922 8.78906C136.828 8.73177 136.724 8.70312 136.609 8.70312C136.495 8.70312 136.312 8.79688 136.062 8.98438C135.068 9.70833 134.247 11.1432 133.602 13.2891C133.43 13.862 133.325 14.2578 133.289 14.4766C133.253 14.6901 133.221 14.8646 133.195 15C133.039 15.8385 132.799 16.2578 132.477 16.2578C132.325 16.2578 132.25 16.1615 132.25 15.9688ZM140.289 5.25C140.596 5.25 140.75 5.40365 140.75 5.71094C140.75 6.15885 140.594 6.41146 140.281 6.46875C140.193 6.48438 140.096 6.49219 139.992 6.49219C139.888 6.49219 139.784 6.4401 139.68 6.33594C139.575 6.23177 139.523 6.09896 139.523 5.9375C139.523 5.77083 139.604 5.61458 139.766 5.46875C139.927 5.32292 140.102 5.25 140.289 5.25ZM139.187 8.89844V8.74219C139.187 8.66927 139.148 8.49219 139.07 8.21094C139.07 8.08073 139.115 7.96354 139.203 7.85938C139.292 7.75 139.398 7.69531 139.523 7.69531C139.654 7.69531 139.76 7.77604 139.844 7.9375C139.927 8.09896 139.969 8.27604 139.969 8.46875C139.969 8.66146 139.724 9.8125 139.234 11.9219C138.745 14.0312 138.5 15.1432 138.5 15.2578C138.5 15.3672 138.552 15.4219 138.656 15.4219C138.724 15.4219 138.82 15.3568 138.945 15.2266C139.07 15.0911 139.177 15.0234 139.266 15.0234C139.437 15.0234 139.523 15.1328 139.523 15.3516C139.523 15.5651 139.362 15.7526 139.039 15.9141C138.716 16.0755 138.482 16.1562 138.336 16.1562C137.971 16.1562 137.789 15.8646 137.789 15.2812C137.789 15.1615 137.812 15.0286 137.859 14.8828C137.911 14.7318 137.963 14.526 138.016 14.2656C138.073 14 138.151 13.6406 138.25 13.1875C138.354 12.7344 138.458 12.2656 138.562 11.7812C138.672 11.2969 138.802 10.7109 138.953 10.0234C139.109 9.33073 139.187 8.95573 139.187 8.89844ZM144.766 14.6875C144.948 14.6875 145.039 14.7839 145.039 14.9766C145.039 15.2005 144.766 15.4531 144.219 15.7344C143.672 16.0156 143.216 16.1562 142.852 16.1562C142.487 16.1562 142.213 16.0964 142.031 15.9766C141.849 15.8568 141.7 15.6901 141.586 15.4766C141.362 15.0599 141.25 14.5573 141.25 13.9688C141.25 12.9271 141.406 11.9453 141.719 11.0234C142.031 10.1016 142.448 9.33854 142.969 8.73438C143.49 8.125 144.052 7.82031 144.656 7.82031C144.979 7.82031 145.232 7.95573 145.414 8.22656C145.602 8.49219 145.695 8.80729 145.695 9.17188C145.695 9.85417 145.516 10.4323 145.156 10.9062C144.802 11.3802 144.365 11.7682 143.844 12.0703C143.323 12.3724 142.724 12.6589 142.047 12.9297L142.016 14.0781C142.016 14.974 142.286 15.4219 142.828 15.4219C143.12 15.4219 143.424 15.3385 143.742 15.1719C144.065 15 144.297 14.8776 144.437 14.8047C144.578 14.7266 144.687 14.6875 144.766 14.6875ZM144.961 9.20312C144.961 8.78646 144.786 8.57812 144.437 8.57812C144.125 8.57812 143.758 8.85938 143.336 9.42188C142.914 9.98438 142.565 10.7266 142.289 11.6484C142.221 11.8724 142.182 12.0417 142.172 12.1562C142.38 12.0417 142.594 11.9323 142.812 11.8281C143.031 11.724 143.245 11.6146 143.453 11.5C143.932 11.2344 144.302 10.9245 144.562 10.5703C144.828 10.2109 144.961 9.75521 144.961 9.20312ZM148.93 8.53125C148.409 8.53125 148.148 8.83333 148.148 9.4375C148.148 9.83854 148.242 10.2526 148.43 10.6797C148.617 11.1068 148.776 11.4479 148.906 11.7031C149.411 12.7083 149.664 13.4792 149.664 14.0156C149.664 14.5469 149.503 15 149.18 15.375C148.857 15.75 148.391 15.974 147.781 16.0469H147.68C147.091 16.0469 146.664 15.6849 146.398 14.9609C146.388 14.9349 146.383 14.9115 146.383 14.8906V14.8125C146.383 14.7031 146.417 14.6146 146.484 14.5469C146.552 14.474 146.625 14.4297 146.703 14.4141H146.789C146.893 14.4141 146.977 14.4557 147.039 14.5391C147.107 14.6224 147.169 14.7161 147.227 14.8203C147.284 14.9193 147.346 15.0104 147.414 15.0938C147.482 15.1771 147.599 15.2188 147.766 15.2188C148.12 15.2188 148.401 15.1094 148.609 14.8906C148.823 14.6667 148.93 14.4193 148.93 14.1484C148.93 13.8776 148.891 13.625 148.812 13.3906C148.682 12.9896 148.458 12.4896 148.141 11.8906C147.609 10.9062 147.344 10.1406 147.344 9.59375C147.344 9.04688 147.482 8.59896 147.758 8.25C148.034 7.90104 148.424 7.72656 148.93 7.72656C149.242 7.72656 149.51 7.79167 149.734 7.92188C150.156 8.16667 150.367 8.44271 150.367 8.75C150.367 9.05208 150.24 9.20312 149.984 9.20312C149.891 9.20312 149.812 9.16927 149.75 9.10156C149.693 9.02865 149.63 8.95052 149.562 8.86719C149.38 8.64323 149.169 8.53125 148.93 8.53125ZM150.719 16.1953C150.406 16.1953 150.25 16.0104 150.25 15.6406C150.25 15.4583 150.328 15.2943 150.484 15.1484C150.635 15.0026 150.799 14.9297 150.977 14.9297C151.159 14.9297 151.333 14.9922 151.5 15.1172C151.682 15.2943 151.773 15.4688 151.773 15.6406C151.773 15.8125 151.708 15.9583 151.578 16.0781C151.448 16.1979 151.307 16.2578 151.156 16.2578C151.005 16.2578 150.88 16.237 150.781 16.1953H150.719ZM152.719 16.1953C152.406 16.1953 152.25 16.0104 152.25 15.6406C152.25 15.4583 152.328 15.2943 152.484 15.1484C152.635 15.0026 152.799 14.9297 152.977 14.9297C153.159 14.9297 153.333 14.9922 153.5 15.1172C153.682 15.2943 153.773 15.4688 153.773 15.6406C153.773 15.8125 153.708 15.9583 153.578 16.0781C153.448 16.1979 153.307 16.2578 153.156 16.2578C153.005 16.2578 152.88 16.237 152.781 16.1953H152.719ZM154.719 16.1953C154.406 16.1953 154.25 16.0104 154.25 15.6406C154.25 15.4583 154.328 15.2943 154.484 15.1484C154.635 15.0026 154.799 14.9297 154.977 14.9297C155.159 14.9297 155.333 14.9922 155.5 15.1172C155.682 15.2943 155.773 15.4688 155.773 15.6406C155.773 15.8125 155.708 15.9583 155.578 16.0781C155.448 16.1979 155.307 16.2578 155.156 16.2578C155.005 16.2578 154.88 16.237 154.781 16.1953H154.719Z" fill="black" fill-opacity="0.7"/>
</svg>
