<svg width="80" height="46" viewBox="0 0 80 46" fill="none" xmlns="http://www.w3.org/2000/svg">
<rect width="80" height="46" rx="8" fill="white"/>
<path d="M38.8539 22.0881V26.9407H37.3037V14.9569H41.4151C41.9058 14.9467 42.3938 15.0331 42.8507 15.2112C43.3076 15.3892 43.7245 15.6554 44.0774 15.9943C44.4337 16.3127 44.7174 16.7031 44.9092 17.1393C45.101 17.5755 45.1966 18.0475 45.1895 18.5234C45.1997 19.0019 45.1056 19.477 44.9136 19.916C44.7217 20.355 44.4364 20.7476 44.0774 21.0669C43.3584 21.7477 42.471 22.0878 41.4151 22.0871H38.8539V22.0881ZM38.8539 16.4323V20.6156H41.4536C41.7386 20.624 42.0222 20.5732 42.2863 20.4665C42.5505 20.3598 42.7892 20.1995 42.9874 19.996C43.1846 19.8056 43.3413 19.578 43.4483 19.3264C43.5553 19.0749 43.6104 18.8046 43.6104 18.5316C43.6104 18.2585 43.5553 17.9882 43.4483 17.7367C43.3413 17.4852 43.1846 17.2575 42.9874 17.0672C42.7917 16.8593 42.5538 16.6951 42.2893 16.5855C42.0249 16.4759 41.74 16.4233 41.4536 16.4313H38.8539V16.4323Z" fill="#5F6368"/>
<path d="M48.7611 18.4735C49.9069 18.4735 50.8113 18.7776 51.4744 19.3857C52.1375 19.9938 52.4687 20.8276 52.4681 21.8871V26.9405H50.9853V25.8027H50.9179C50.276 26.7397 49.4222 27.2083 48.3567 27.2083C47.4471 27.2083 46.6861 26.9405 46.0738 26.4051C45.7799 26.1593 45.5449 25.8515 45.386 25.5042C45.2271 25.1568 45.1483 24.7786 45.1552 24.3971C45.1552 23.5486 45.4781 22.8739 46.1238 22.3728C46.7696 21.8718 47.6317 21.6206 48.7101 21.6194C49.6305 21.6194 50.3886 21.7867 50.9843 22.1214V21.7695C50.9861 21.5094 50.9295 21.2522 50.8188 21.0166C50.708 20.7809 50.5458 20.5726 50.344 20.4069C49.9341 20.0396 49.3998 19.8392 48.8477 19.8456C47.9818 19.8456 47.2966 20.2084 46.7921 20.9338L45.4267 20.0799C46.1778 19.009 47.2892 18.4735 48.7611 18.4735ZM46.7555 24.4306C46.7544 24.6265 46.8005 24.8198 46.89 24.9945C46.9794 25.1691 47.1096 25.32 47.2696 25.4345C47.6125 25.7024 48.038 25.8443 48.4742 25.8361C49.1283 25.8351 49.7554 25.5765 50.2179 25.1171C50.7314 24.6371 50.9882 24.0739 50.9882 23.4275C50.5048 23.045 49.8308 22.8538 48.9662 22.8538C48.3365 22.8538 47.8114 23.0046 47.3909 23.3061C46.9663 23.6121 46.7555 23.984 46.7555 24.4306Z" fill="#5F6368"/>
<path d="M60.98 18.7413L55.8037 30.555H54.2035L56.1244 26.4214L52.7207 18.7413H54.4057L56.8658 24.6314H56.8995L59.2922 18.7413H60.98Z" fill="#5F6368"/>
<path d="M32.5893 21.0415C32.5899 20.5723 32.5499 20.104 32.4699 19.6416H25.9321V22.2931H29.6766C29.6 22.7166 29.4378 23.1203 29.1999 23.4798C28.9619 23.8394 28.6531 24.1474 28.2921 24.3852V26.1064H30.5268C31.8354 24.9083 32.5893 23.1365 32.5893 21.0415Z" fill="#4285F4"/>
<path d="M25.9323 27.7691C27.8031 27.7691 29.3783 27.159 30.527 26.1072L28.2922 24.3861C27.6702 24.8049 26.8691 25.0439 25.9323 25.0439C24.1241 25.0439 22.5893 23.8334 22.0405 22.2021H19.7383V23.9759C20.3153 25.1161 21.2001 26.0746 22.2938 26.7445C23.3876 27.4143 24.6473 27.769 25.9323 27.7691Z" fill="#34A853"/>
<path d="M22.0404 22.2029C21.7502 21.3481 21.7502 20.4225 22.0404 19.5677V17.7939H19.7382C19.2528 18.7531 19 19.8118 19 20.8853C19 21.9588 19.2528 23.0174 19.7382 23.9766L22.0404 22.2029Z" fill="#FBBC04"/>
<path d="M25.9323 16.7256C26.9209 16.7096 27.8762 17.0805 28.5917 17.7583L30.5703 15.7933C29.3157 14.623 27.6535 13.9805 25.9323 14.0005C24.6473 14.0005 23.3876 14.3553 22.2938 15.0251C21.2001 15.6949 20.3153 16.6534 19.7383 17.7937L22.0405 19.5674C22.5893 17.9361 24.1241 16.7256 25.9323 16.7256Z" fill="#EA4335"/>
</svg>
