<svg width="30" height="34" viewBox="0 0 30 34" fill="none" xmlns="http://www.w3.org/2000/svg">
<g filter="url(#filter0_dd_1_30)">
<path d="M24.3333 24.5V22.1667C24.3333 20.929 23.8417 19.742 22.9665 18.8668C22.0913 17.9917 20.9043 17.5 19.6667 17.5H10.3333C9.09565 17.5 7.90866 17.9917 7.03349 18.8668C6.15832 19.742 5.66666 20.929 5.66666 22.1667V24.5" stroke="#212429" stroke-width="2" stroke-linecap="round" stroke-linejoin="round"/>
<path d="M15 12.8333C17.5773 12.8333 19.6667 10.744 19.6667 8.16667C19.6667 5.58934 17.5773 3.5 15 3.5C12.4227 3.5 10.3333 5.58934 10.3333 8.16667C10.3333 10.744 12.4227 12.8333 15 12.8333Z" stroke="#212429" stroke-width="2" stroke-linecap="round" stroke-linejoin="round"/>
</g>
<defs>
<filter id="filter0_dd_1_30" x="-3" y="0" width="36" height="36" filterUnits="userSpaceOnUse" color-interpolation-filters="sRGB">
<feFlood flood-opacity="0" result="BackgroundImageFix"/>
<feColorMatrix in="SourceAlpha" type="matrix" values="0 0 0 0 0 0 0 0 0 0 0 0 0 0 0 0 0 0 127 0" result="hardAlpha"/>
<feOffset dy="4"/>
<feGaussianBlur stdDeviation="2"/>
<feComposite in2="hardAlpha" operator="out"/>
<feColorMatrix type="matrix" values="0 0 0 0 0 0 0 0 0 0 0 0 0 0 0 0 0 0 0.25 0"/>
<feBlend mode="normal" in2="BackgroundImageFix" result="effect1_dropShadow_1_30"/>
<feColorMatrix in="SourceAlpha" type="matrix" values="0 0 0 0 0 0 0 0 0 0 0 0 0 0 0 0 0 0 127 0" result="hardAlpha"/>
<feOffset dy="4"/>
<feGaussianBlur stdDeviation="2"/>
<feComposite in2="hardAlpha" operator="out"/>
<feColorMatrix type="matrix" values="0 0 0 0 0 0 0 0 0 0 0 0 0 0 0 0 0 0 0.25 0"/>
<feBlend mode="normal" in2="effect1_dropShadow_1_30" result="effect2_dropShadow_1_30"/>
<feBlend mode="normal" in="SourceGraphic" in2="effect2_dropShadow_1_30" result="shape"/>
</filter>
</defs>
</svg>
