<svg width="80" height="46" viewBox="0 0 80 46" fill="none" xmlns="http://www.w3.org/2000/svg">
<rect width="80" height="46" rx="8" fill="white"/>
<path d="M57.7207 17.1777H55.1784C54.4098 17.1777 53.8186 17.4142 53.4638 18.1828L48.6157 29.2388H52.0449C52.0449 29.2388 52.6361 27.7608 52.7543 27.406C53.1091 27.406 56.4791 27.406 56.9521 27.406C57.0703 27.8199 57.3659 29.1797 57.3659 29.1797H60.4403L57.7207 17.1777ZM53.7003 24.9229C53.9959 24.2134 55.001 21.5528 55.001 21.5528C55.001 21.612 55.2966 20.8434 55.4149 20.4295L55.6514 21.4937C55.6514 21.4937 56.3017 24.3907 56.42 24.982H53.7003V24.9229Z" fill="#3362AB"/>
<path d="M48.8522 25.2773C48.8522 27.7604 46.6055 29.4159 43.1173 29.4159C41.6392 29.4159 40.2203 29.1203 39.4517 28.7655L39.9246 26.0459L40.3385 26.2232C41.4027 26.6962 42.1122 26.8736 43.4129 26.8736C44.3589 26.8736 45.364 26.5188 45.364 25.6911C45.364 25.159 44.9501 24.8043 43.6494 24.213C42.4078 23.6218 40.7524 22.6758 40.7524 20.9613C40.7524 18.5964 43.0582 17 46.3099 17C47.5515 17 48.6157 17.2365 49.2661 17.5321L48.7931 20.1336L48.5566 19.8971C47.9654 19.6606 47.1968 19.4241 46.0734 19.4241C44.8319 19.4832 44.2406 20.0153 44.2406 20.4883C44.2406 21.0204 44.9501 21.4343 46.0734 21.9664C47.9654 22.8532 48.8522 23.8583 48.8522 25.2773Z" fill="#3362AB"/>
<path d="M20 17.2961L20.0591 17.0596H25.1437C25.8532 17.0596 26.3853 17.2961 26.5627 18.0647L27.686 23.3857C26.5627 20.5478 23.9612 18.242 20 17.2961Z" fill="#F9B50B"/>
<path d="M34.8401 17.1774L29.6964 29.1794H26.2081L23.252 19.1284C25.3804 20.4883 27.1541 22.6167 27.8044 24.0948L28.1592 25.3364L31.3518 17.1183H34.8401V17.1774Z" fill="#3362AB"/>
<path d="M36.1997 17.1183H39.4514L37.3821 29.1794H34.1304L36.1997 17.1183Z" fill="#3362AB"/>
</svg>
